#N canvas 55 162 705 525 12;
#X obj 109 247 adc~;
#X obj 110 309 bonk~;
#X obj 271 369 unpack 0 0 0;
#X msg 298 140 debounce 0;
#X msg 303 170 learn 10;
#X msg 303 205 learn 0;
#X msg 298 234 forget;
#X msg 294 271 write cajon_templates.txt;
#X msg 293 303 read cajon_templates.txt;
#X obj 43 352 spigot;
#X obj 80 333 tgl 15 0 empty empty empty 17 7 0 10 -262144 -1 -1 0
1;
#X obj 43 377 print raw;
#X obj 148 353 spigot;
#X obj 185 334 tgl 15 0 empty empty empty 17 7 0 10 -262144 -1 -1 1
1;
#X obj 148 378 print cooked;
#X text 297 110 Training cajon high/low recommendation;
#X connect 0 0 1 0;
#X connect 1 0 2 0;
#X connect 1 0 9 0;
#X connect 1 1 12 0;
#X connect 3 0 1 0;
#X connect 4 0 1 0;
#X connect 5 0 1 0;
#X connect 6 0 1 0;
#X connect 7 0 1 0;
#X connect 8 0 1 0;
#X connect 9 0 11 0;
#X connect 10 0 9 1;
#X connect 12 0 14 0;
#X connect 13 0 12 1;
