#N canvas 56 101 1171 528 12;
#X obj -82 36 adc~;
#X obj -134 104 bonk~;
#X obj -93 152 unpack 0 0 0;
#X floatatom -117 215 5 0 0 0 - - -;
#X floatatom -51 213 5 0 0 0 - - -;
#X floatatom 46 182 5 0 0 0 - - -;
#X msg -69 87 read cajon_templates.txt;
#X text -36 193 velocity;
#X obj -51 287 moses 11;
#X floatatom 10 264 5 0 0 0 - - -;
#X obj 15 245 hsl 128 15 0 127 0 0 empty empty empty -2 -8 0 10 -262144
-1 -1 0 1;
#X text 12 225 vel threshold;
#X obj -117 237 moses 1;
#X obj -118 269 bng 15 250 50 0 empty empty empty 17 7 0 10 -262144
-1 -1;
#X obj -72 269 bng 15 250 50 0 empty empty empty 17 7 0 10 -262144
-1 -1;
#X floatatom 2 315 5 0 0 0 - - -;
#X msg -51 312 0;
#X obj -17 430 spigot;
#X obj -15 380 t l l f;
#X obj 31 404 tgl 15 0 empty empty empty 17 7 0 10 -262144 -1 -1 0
3;
#X obj 88 456 print;
#X obj -17 455 noteout;
#X msg -192 343 3 100 1;
#X msg -117 344 4 100 1;
#X text -204 196 (0=low \, 1=high);
#X text 1 360 new IAC driver "For Pd->midiStroke";
#X text 1 348 using midistroke:;
#X obj 223 81 effects/simpledel;
#X obj 223 112 dac~;
#X text 224 58 #EFFECTS;
#X text -203 180 inst number;
#X text -221 60 #MIDI CONTROLS;
#X connect 0 0 1 0;
#X connect 0 1 27 0;
#X connect 1 1 2 0;
#X connect 2 0 3 0;
#X connect 2 1 4 0;
#X connect 2 2 5 0;
#X connect 3 0 12 0;
#X connect 4 0 8 0;
#X connect 6 0 1 0;
#X connect 8 0 16 0;
#X connect 8 1 15 0;
#X connect 9 0 8 1;
#X connect 10 0 9 0;
#X connect 12 0 13 0;
#X connect 12 1 14 0;
#X connect 13 0 22 0;
#X connect 14 0 23 0;
#X connect 15 0 18 0;
#X connect 17 0 20 0;
#X connect 17 0 21 0;
#X connect 18 0 17 0;
#X connect 18 1 17 0;
#X connect 18 2 19 0;
#X connect 19 0 17 1;
#X connect 22 0 18 0;
#X connect 23 0 18 0;
#X connect 27 0 28 0;
#X connect 27 0 28 1;
