#N canvas 456 155 929 614 12;
#X obj 161 229 delread~ del 33;
#X obj 163 181 *~ 0.95;
#X text 129 65 delays;
#X obj 389 23 adc~;
#X obj 135 344 dac~;
#X obj 120 94 delwrite~ del 1000;
#X obj 44 123 vsl 15 128 0 1000 0 0 empty empty empty 0 -9 0 10 -262144
-1 -1 2800 1;
#X floatatom 40 268 5 0 0 0 - - -;
#X obj 325 102 vsl 15 128 0 1 0 0 empty empty empty 0 -9 0 10 -262144
-1 -1 12700 1;
#X floatatom 325 238 5 0 0 0 - - -;
#X text 323 80 feedback;
#X text 195 149;
#X text 21 95 delay ms;
#X floatatom 454 218 5 0 0 0 - - -;
#X obj 454 193 line 1 100;
#X msg 528 138 set \$1;
#X msg 458 146 0 5000;
#X text 457 96 fadeout;
#X obj 460 122 bng 15 250 50 0 empty empty empty 17 7 0 10 -262144
-1 -1;
#X obj -17 321 / 2;
#X floatatom -17 346 5 0 0 0 - - -;
#X obj 44 324 * 2;
#X floatatom 44 349 5 0 0 0 - - -;
#X connect 0 0 1 0;
#X connect 0 0 4 0;
#X connect 0 0 4 1;
#X connect 1 0 5 0;
#X connect 3 0 5 0;
#X connect 6 0 7 0;
#X connect 7 0 0 0;
#X connect 7 0 19 0;
#X connect 7 0 21 0;
#X connect 8 0 9 0;
#X connect 9 0 1 1;
#X connect 9 0 15 0;
#X connect 13 0 1 1;
#X connect 14 0 13 0;
#X connect 15 0 14 0;
#X connect 16 0 14 0;
#X connect 18 0 16 0;
#X connect 19 0 20 0;
#X connect 21 0 22 0;
