#N canvas 456 155 840 579 12;
#X obj 0 94 delwrite~ del 100;
#X obj -17 177 delread~ del 33;
#X obj 7 137 *~ 0.95;
#X text 9 65 delays;
#X obj 269 23 adc~;
#X obj 15 344 dac~;
#X connect 1 0 2 0;
#X connect 1 0 5 0;
#X connect 1 0 5 1;
#X connect 2 0 0 0;
#X connect 4 0 0 0;
