#N canvas 416 72 641 439 12;
#X obj 189 215 gemwin;
#X msg 225 76 destroy;
#X msg 219 121 1;
#X msg 277 125 0;
#X obj 413 117 gemhead;
#X msg 76 44 reset \, dimen 640 480 \, create \, 1;
#X obj 312 357 square 0.25;
#X obj 318 251 translate 0.1 0 1 0;
#X obj 417 194 color 1 0 0;
#X obj 317 304 translate 0.1 1 0 0;
#X obj 547 148 vsl 15 128 0 127 0 0 empty empty empty 0 -9 0 10 -262144
-1 -1 0 1;
#X floatatom 582 266 5 0 0 0 - - -;
#X obj 492 323 hsl 128 15 0 127 0 0 empty empty empty -2 -8 0 10 -262144
-1 -1 0 1;
#X floatatom 525 346 5 0 0 0 - - -;
#X connect 1 0 0 0;
#X connect 2 0 0 0;
#X connect 3 0 0 0;
#X connect 4 0 8 0;
#X connect 5 0 0 0;
#X connect 7 0 9 0;
#X connect 8 0 7 0;
#X connect 9 0 6 0;
#X connect 10 0 7 1;
#X connect 10 0 11 0;
#X connect 12 0 9 1;
#X connect 12 0 13 0;
