#N canvas 0 22 1440 852 12;
#X obj 876 16 adc~;
#X obj 839 181 *~ 1;
#X floatatom 585 94 5 0 0 0 - - -;
#X floatatom 769 87 5 0 0 0 - - -;
#X msg 861 157 0;
#X msg 895 156 1;
#X obj 608 518 mtof;
#X obj 611 547 sig~;
#X obj 483 151 moses 20;
#X obj 505 184 moses 100;
#X floatatom 507 218 5 0 0 0 - - -;
#X text 709 161 amplitude ctrl;
#X text 491 130 pitch ctrl;
#X obj 715 221 bng 15 250 50 0 empty empty empty 17 7 0 10 -262144
-1 -1;
#X obj 763 218 bng 15 250 50 0 empty empty empty 17 7 0 10 -262144
-1 -1;
#X obj 720 287 spigot 0;
#X msg 763 238 0;
#X msg 715 241 1;
#X floatatom 720 312 5 0 0 0 - - -;
#X msg 704 98 70;
#X obj 805 671 dac~;
#X obj 613 609 *~;
#X obj 611 572 osc~;
#X obj 352 424 tgl 15 0 empty empty empty 17 7 0 10 -262144 -1 -1 1
1;
#X obj 580 59 sigmund~ pitch notes env;
#X floatatom 647 91 5 0 0 0 - - -;
#X floatatom 540 332 5 0 0 0 - - -;
#X floatatom 540 332 5 0 0 0 - - -;
#X obj 540 307 + 12;
#X msg 345 243 7;
#X msg 345 279 12;
#X obj 704 184 moses 80;
#X floatatom 279 158 5 0 0 0 - - -;
#X obj 596 420 spigot 1;
#X obj 349 348 tgl 15 0 empty empty empty 17 7 0 10 -262144 -1 -1 0
1;
#X text 289 423 ON/OFF;
#X obj 23 43 keyup;
#X floatatom 23 68 5 0 0 0 - - -;
#X obj 213 337 == 32;
#X floatatom 213 362 5 0 0 0 - - -;
#X obj 151 387 moses 1;
#X obj 202 415 bng 15 250 50 0 empty empty empty 17 7 0 10 -262144
-1 -1;
#X text 20 19 keyboard input;
#X obj 157 199 moses 1;
#X obj 207 224 bng 15 250 50 0 empty empty empty 17 7 0 10 -262144
-1 -1;
#X obj 153 175 == 53;
#X obj 172 111 moses 1;
#X obj 223 132 bng 15 250 50 0 empty empty empty 17 7 0 10 -262144
-1 -1;
#X obj 176 88 == 56;
#X text 238 244 FREQ: 5 for fifth 8 for octave;
#X text 280 333 LOCKe: spacebar;
#X connect 0 0 1 0;
#X connect 0 0 24 0;
#X connect 1 0 20 0;
#X connect 1 0 20 1;
#X connect 2 0 8 0;
#X connect 3 0 31 0;
#X connect 4 0 1 1;
#X connect 5 0 1 1;
#X connect 6 0 7 0;
#X connect 7 0 22 0;
#X connect 8 1 9 0;
#X connect 9 0 10 0;
#X connect 10 0 28 0;
#X connect 13 0 17 0;
#X connect 14 0 16 0;
#X connect 15 0 18 0;
#X connect 16 0 15 1;
#X connect 17 0 15 1;
#X connect 19 0 31 1;
#X connect 21 0 20 0;
#X connect 21 0 20 1;
#X connect 22 0 21 0;
#X connect 23 0 21 1;
#X connect 24 0 2 0;
#X connect 24 1 25 0;
#X connect 24 2 3 0;
#X connect 26 0 33 0;
#X connect 28 0 26 0;
#X connect 28 0 27 0;
#X connect 29 0 28 1;
#X connect 30 0 28 1;
#X connect 31 0 13 0;
#X connect 31 1 14 0;
#X connect 32 0 28 1;
#X connect 33 0 6 0;
#X connect 34 0 33 1;
#X connect 36 0 37 0;
#X connect 37 0 38 0;
#X connect 37 0 45 0;
#X connect 37 0 48 0;
#X connect 38 0 39 0;
#X connect 38 0 40 0;
#X connect 40 1 41 0;
#X connect 41 0 34 0;
#X connect 43 1 44 0;
#X connect 44 0 29 0;
#X connect 45 0 43 0;
#X connect 46 1 47 0;
#X connect 47 0 30 0;
#X connect 48 0 46 0;
