#N canvas 482 22 1440 852 12;
#X obj 177 211 bonk~;
#X obj 184 251 bng 15 250 50 0 empty empty empty 17 7 0 10 -257985
-1 -1;
#X text 36 108 built-in mic \, clapping;
#X text 30 236 20=snap \, 100=drums;
#X text 479 56 AUDIO DETECT;
#X floatatom 217 200 5 0 0 0 - - -;
#X obj 213 170 sigmund~ notes;
#X obj 234 275 spigot;
#X obj 282 244 tgl 15 0 empty empty empty 17 7 0 10 -262144 -1 -1 0
1;
#X floatatom 234 305 5 0 0 0 - - -;
#X msg 312 218 0;
#X msg 274 219 1;
#X obj 234 324 moses 60;
#X obj 234 360 bng 15 250 50 0 empty empty empty 17 7 0 10 -262144
-1 -1;
#X obj 280 362 bng 15 250 50 0 empty empty empty 17 7 0 10 -262144
-1 -1;
#X msg 55 210 minvel 20;
#X msg 37 165 mask 10 0.5;
#X msg 37 133 thresh 10 20;
#X obj 198 34 inlet~;
#X text 345 259 pitch detection to be used for BD/SD differentiation
;
#X text 197 11 from adc~;
#X obj 37 44 inlet;
#X text 30 23 from glob on;
#X obj 37 69 t b b b;
#X obj 179 444 outlet;
#X connect 0 0 1 0;
#X connect 1 0 11 0;
#X connect 1 0 24 0;
#X connect 5 0 7 0;
#X connect 6 0 5 0;
#X connect 7 0 9 0;
#X connect 7 0 10 0;
#X connect 8 0 7 1;
#X connect 9 0 12 0;
#X connect 10 0 8 0;
#X connect 11 0 8 0;
#X connect 12 0 13 0;
#X connect 12 1 14 0;
#X connect 15 0 0 0;
#X connect 16 0 0 0;
#X connect 17 0 0 0;
#X connect 18 0 0 0;
#X connect 18 0 6 0;
#X connect 21 0 23 0;
#X connect 23 0 15 0;
#X connect 23 1 16 0;
#X connect 23 2 17 0;
