#N canvas 808 191 579 364 12;
#X obj 126 38 adc~;
#X obj 126 63 sigmund~ notes;
#X floatatom 126 88 5 0 0 0 - - -;
#X text -94 14 using: - midistroke - new IAC driver "For midistroke
snake";
#X obj 118 315 noteout;
#X msg 98 244 1 100 1;
#X msg 182 247 2 100 1;
#X obj 111 225 bng 15 250 50 0 empty empty empty 17 7 0 10 -262144
-1 -1;
#X obj 190 225 bng 15 250 50 0 empty empty empty 17 7 0 10 -262144
-1 -1;
#X obj 134 197 select 60 63 67 70;
#X obj 129 140 int;
#X floatatom 129 165 5 0 0 0 - - -;
#X obj 129 115 + 0.4999;
#X text 254 61 track pitch of "note";
#X text 287 192 route cmd according to midi note val;
#X text 209 114 round to integer (midi note);
#X obj 264 226 bng 15 250 50 0 empty empty empty 17 7 0 10 -262144
-1 -1;
#X obj 341 230 bng 15 250 50 0 empty empty empty 17 7 0 10 -262144
-1 -1;
#X msg 256 248 3 100 1;
#X msg 333 252 4 100 1;
#X obj 14 195 moses 59;
#X text -68 180 route cmd acc to pitch range (L/R only);
#X connect 0 0 1 0;
#X connect 1 0 2 0;
#X connect 2 0 12 0;
#X connect 5 0 4 0;
#X connect 6 0 4 0;
#X connect 7 0 5 0;
#X connect 8 0 6 0;
#X connect 9 0 7 0;
#X connect 9 1 8 0;
#X connect 9 2 16 0;
#X connect 9 3 17 0;
#X connect 10 0 11 0;
#X connect 11 0 20 0;
#X connect 12 0 10 0;
#X connect 16 0 18 0;
#X connect 17 0 19 0;
#X connect 18 0 4 0;
#X connect 19 0 4 0;
#X connect 20 0 8 0;
#X connect 20 1 16 0;
