#N canvas 236 181 450 300 12;
#X obj 183 47 inlet;
#X obj 190 145 *;
#X obj 183 79 t f b;
#X msg 225 106 44.1;
#X obj 190 170 outlet;
#X connect 0 0 2 0;
#X connect 1 0 4 0;
#X connect 2 0 1 0;
#X connect 2 1 3 0;
#X connect 3 0 1 1;
