#N canvas 24 59 1440 852 12;
#X obj 260 79 adc~ 1;
#X obj 434 75 adc~ 2;
#X obj 590 72 adc~ 3;
#X obj 753 75 adc~ 4;
#X text 259 61 KICK;
#X text 426 53 SNARE;
#X text 588 50 OVER57;
#X text 750 52 ZOOM;
#X text 12 18 input from saffire 9/21;
#X obj 376 282 bonk~;
#X obj 259 103 bonk~;
#X floatatom 259 128 5 0 0 0 - - -;
#X obj 434 100 bonk~;
#X floatatom 434 125 5 0 0 0 - - -;
#X obj 590 97 bonk~;
#X floatatom 590 122 5 0 0 0 - - -;
#X obj 753 100 bonk~;
#X floatatom 753 125 5 0 0 0 - - -;
#X connect 0 0 10 0;
#X connect 1 0 12 0;
#X connect 2 0 14 0;
#X connect 3 0 16 0;
#X connect 10 0 11 0;
#X connect 12 0 13 0;
#X connect 14 0 15 0;
#X connect 16 0 17 0;
