#N canvas 24 59 1440 852 12;
#X obj 260 79 adc~ 1;
#X obj 260 104 sigmund~;
#X floatatom 321 134 5 0 0 0 - - -;
#X obj 442 101 sigmund~;
#X floatatom 503 131 5 0 0 0 - - -;
#X obj 442 76 adc~ 2;
#X obj 598 98 sigmund~;
#X floatatom 659 128 5 0 0 0 - - -;
#X obj 598 73 adc~ 3;
#X obj 752 99 sigmund~;
#X floatatom 813 129 5 0 0 0 - - -;
#X obj 753 75 adc~ 4;
#X text 259 61 KICK;
#X text 434 54 SNARE;
#X text 596 51 OVER57;
#X text 750 52 ZOOM;
#X text 12 18 input from saffire 9/21;
#X connect 0 0 1 0;
#X connect 1 1 2 0;
#X connect 3 1 4 0;
#X connect 5 0 3 0;
#X connect 6 1 7 0;
#X connect 8 0 6 0;
#X connect 9 1 10 0;
#X connect 11 0 9 0;
