#N canvas 297 22 1205 792 12;
#X obj 259 117 adc~ 1;
#X obj 708 110 adc~ 3;
#X obj 871 113 adc~ 4;
#X text 258 55 KICK;
#X text 486 55 SNARE;
#X text 707 50 OVER57;
#X text 869 52 ZOOM;
#X obj 258 141 bonk~;
#X obj 708 135 bonk~;
#X floatatom 708 160 5 0 0 0 - - -;
#X obj 871 138 bonk~;
#X floatatom 871 163 5 0 0 0 - - -;
#X text 12 18 input from saffire 9/21 kick&snare preamps both at 6
;
#X obj 64 86 bng 15 250 50 0 empty empty empty 17 7 0 10 -262144 -1
-1;
#X obj 249 175 unpack 0 0 0;
#X floatatom 249 200 5 0 0 0 - - -;
#X floatatom 300 200 5 0 0 0 - - -;
#X floatatom 349 201 5 0 0 0 - - -;
#X msg 300 222 kick: \$1;
#X obj 300 247 print;
#X obj 246 256 vu 15 120 empty empty -1 -8 0 10 -66577 -1 1 0;
#X obj 247 224 - 30;
#X obj 497 139 bonk~;
#X obj 488 173 unpack 0 0 0;
#X floatatom 488 198 5 0 0 0 - - -;
#X floatatom 539 198 5 0 0 0 - - -;
#X floatatom 588 199 5 0 0 0 - - -;
#X obj 539 245 print;
#X obj 485 254 vu 15 120 empty empty -1 -8 0 10 -66577 -1 1 0;
#X obj 486 222 - 30;
#X obj 498 115 adc~ 2;
#X msg 539 220 snare: \$1;
#X floatatom 653 272 5 0 0 0 - - -;
#X floatatom 409 276 5 0 0 0 - - -;
#X text 19 596 TODO: - array keeping track of last x hits (morse code)
- graphics;
#X text 650 580 using: - midistroke - new IAC driver "For midistroke
snake";
#X obj 576 578 noteout;
#X msg 527 534 2 100 1;
#X msg 615 533 3 100 1;
#X obj 350 246 moses 30;
#X obj 592 245 moses 30;
#X obj 377 360 timer;
#X obj 392 314 t b b;
#X floatatom 377 385 5 0 0 0 - - -;
#X obj 377 407 moses 75;
#X text 204 438 prevent double-triggering;
#X obj 442 445 bng 15 250 50 0 empty empty empty 17 7 0 10 -262144
-1 -1;
#X obj 632 356 timer;
#X obj 647 310 t b b;
#X floatatom 632 381 5 0 0 0 - - -;
#X obj 632 403 moses 75;
#X obj 697 441 bng 15 250 50 0 empty empty empty 17 7 0 10 -262144
-1 -1;
#X connect 0 0 7 0;
#X connect 1 0 8 0;
#X connect 2 0 10 0;
#X connect 7 1 14 0;
#X connect 8 0 9 0;
#X connect 10 0 11 0;
#X connect 14 0 15 0;
#X connect 14 1 16 0;
#X connect 14 2 17 0;
#X connect 16 0 18 0;
#X connect 16 0 21 0;
#X connect 16 0 39 0;
#X connect 18 0 19 0;
#X connect 21 0 20 0;
#X connect 22 1 23 0;
#X connect 23 0 24 0;
#X connect 23 1 25 0;
#X connect 23 2 26 0;
#X connect 25 0 31 0;
#X connect 25 0 29 0;
#X connect 25 0 40 0;
#X connect 29 0 28 0;
#X connect 30 0 22 0;
#X connect 31 0 27 0;
#X connect 32 0 48 0;
#X connect 33 0 42 0;
#X connect 37 0 36 0;
#X connect 38 0 36 0;
#X connect 39 1 33 0;
#X connect 40 1 32 0;
#X connect 41 0 43 0;
#X connect 42 0 41 0;
#X connect 42 1 41 1;
#X connect 43 0 44 0;
#X connect 44 1 46 0;
#X connect 46 0 37 0;
#X connect 47 0 49 0;
#X connect 48 0 47 0;
#X connect 48 1 47 1;
#X connect 49 0 50 0;
#X connect 50 1 51 0;
#X connect 51 0 38 0;
