#N canvas 24 59 1440 852 12;
#X obj 259 117 adc~ 1;
#X obj 708 110 adc~ 3;
#X obj 871 113 adc~ 4;
#X text 258 55 KICK;
#X text 438 56 SNARE;
#X text 707 50 OVER57;
#X text 869 52 ZOOM;
#X obj 258 141 bonk~;
#X obj 708 135 bonk~;
#X floatatom 708 160 5 0 0 0 - - -;
#X obj 871 138 bonk~;
#X floatatom 871 163 5 0 0 0 - - -;
#X text 12 18 input from saffire 9/21 kick&snare preamps both at 6
;
#X obj 64 86 bng 15 250 50 0 empty empty empty 17 7 0 10 -262144 -1
-1;
#X obj 249 175 unpack 0 0 0;
#X floatatom 249 200 5 0 0 0 - - -;
#X floatatom 300 200 5 0 0 0 - - -;
#X floatatom 349 201 5 0 0 0 - - -;
#X msg 300 222 kick: \$1;
#X obj 300 247 print;
#X obj 246 256 vu 15 120 empty empty -1 -8 0 10 -66577 -1 1 0;
#X obj 247 224 - 30;
#X obj 485 496 hsl 128 15 0 127 0 0 empty empty empty -2 -8 0 10 -262144
-1 -1 0 1;
#X obj 449 140 bonk~;
#X obj 440 174 unpack 0 0 0;
#X floatatom 440 199 5 0 0 0 - - -;
#X floatatom 491 199 5 0 0 0 - - -;
#X floatatom 540 200 5 0 0 0 - - -;
#X obj 491 246 print;
#X obj 437 255 vu 15 120 empty empty -1 -8 0 10 -66577 -1 1 0;
#X obj 438 223 - 30;
#X obj 450 116 adc~ 2;
#X msg 491 221 snare: \$1;
#X connect 0 0 7 0;
#X connect 1 0 8 0;
#X connect 2 0 10 0;
#X connect 7 1 14 0;
#X connect 8 0 9 0;
#X connect 10 0 11 0;
#X connect 14 0 15 0;
#X connect 14 1 16 0;
#X connect 14 2 17 0;
#X connect 16 0 18 0;
#X connect 16 0 21 0;
#X connect 18 0 19 0;
#X connect 21 0 20 0;
#X connect 23 1 24 0;
#X connect 24 0 25 0;
#X connect 24 1 26 0;
#X connect 24 2 27 0;
#X connect 26 0 32 0;
#X connect 26 0 30 0;
#X connect 30 0 29 0;
#X connect 31 0 23 0;
#X connect 32 0 28 0;
