#N canvas 24 59 1440 852 12;
#X obj 259 117 adc~ 1;
#X obj 708 110 adc~ 3;
#X obj 871 113 adc~ 4;
#X text 258 55 KICK;
#X text 438 56 SNARE;
#X text 707 50 OVER57;
#X text 869 52 ZOOM;
#X obj 258 141 bonk~;
#X obj 708 135 bonk~;
#X floatatom 708 160 5 0 0 0 - - -;
#X obj 871 138 bonk~;
#X floatatom 871 163 5 0 0 0 - - -;
#X text 12 18 input from saffire 9/21 kick&snare preamps both at 6
;
#X msg 318 87 thresh 5 20;
#X obj 64 86 bng 15 250 50 0 empty empty empty 17 7 0 10 -262144 -1
-1;
#X obj 249 175 unpack 0 0 0;
#X floatatom 249 200 5 0 0 0 - - -;
#X floatatom 300 200 5 0 0 0 - - -;
#X floatatom 349 201 5 0 0 0 - - -;
#X msg 300 222 kick: \$1;
#X obj 300 247 print;
#X obj 443 142 bonk~;
#X obj 434 176 unpack 0 0 0;
#X floatatom 434 201 5 0 0 0 - - -;
#X floatatom 485 201 5 0 0 0 - - -;
#X floatatom 534 202 5 0 0 0 - - -;
#X obj 485 248 print;
#X msg 485 223 snare: \$1;
#X obj 444 118 adc~ 2;
#X connect 0 0 7 0;
#X connect 1 0 8 0;
#X connect 2 0 10 0;
#X connect 7 1 15 0;
#X connect 8 0 9 0;
#X connect 10 0 11 0;
#X connect 13 0 7 0;
#X connect 13 0 28 0;
#X connect 15 0 16 0;
#X connect 15 1 17 0;
#X connect 15 2 18 0;
#X connect 17 0 19 0;
#X connect 19 0 20 0;
#X connect 21 1 22 0;
#X connect 22 0 23 0;
#X connect 22 1 24 0;
#X connect 22 2 25 0;
#X connect 24 0 27 0;
#X connect 27 0 26 0;
#X connect 28 0 21 0;
