#N canvas 243 22 1082 643 12;
#X obj 139 132 gemwin;
#X msg 144 104 destroy;
#X obj 512 117 gemhead;
#X msg 44 72 reset \, dimen 640 480 \, create \, 1;
#X obj 510 151 color 1 0 0;
#X obj 745 38 vsl 15 128 0 127 0 0 empty empty empty 0 -9 0 10 -262144
-1 -1 0 1;
#X floatatom 744 176 5 0 0 0 - - -;
#X obj 686 91 hsl 128 15 0 127 0 0 empty empty empty -2 -8 0 10 -262144
-1 -1 0 1;
#X floatatom 643 89 5 0 0 0 - - -;
#X obj 505 374 rectangle 0.25 0.25;
#X obj 501 248 translate 1 0 1 0;
#X obj 503 282 translate 1 1 0 0;
#X obj 97 12 loadbang;
#X obj 18 205 v snake_size;
#X text 44 53 init display;
#X msg 18 176 1;
#X obj 62 28 bng 15 250 50 0 empty empty empty 17 7 0 10 -262144 -1
-1;
#X text 510 83 snake obj;
#X obj 155 277 gemhead;
#X obj 153 312 color 0 1 0;
#X obj 146 370 square 0.25;
#X obj 152 343 translate 1 0 0 0;
#X floatatom 677 261 5 0 0 0 - - -;
#X obj 803 213 metro 500;
#X obj 775 354 - 1;
#X msg 120 174 0;
#X obj 119 206 v snake_x;
#X obj 113 228 v snake_y;
#X obj 785 266 v snake_x;
#X obj 776 411 v snake_x;
#X floatatom 781 440 5 0 0 0 - - -;
#X obj 793 244 bng 15 250 50 0 empty empty empty 17 7 0 10 -262144
-1 -1;
#X obj 765 384 t b f;
#X obj 657 468 select 1;
#X obj 660 422 == 1;
#X obj 23 315 v snake_dir;
#X connect 1 0 0 0;
#X connect 2 0 4 0;
#X connect 3 0 0 0;
#X connect 4 0 10 0;
#X connect 5 0 6 0;
#X connect 7 0 8 0;
#X connect 10 0 11 0;
#X connect 11 0 9 0;
#X connect 12 0 16 0;
#X connect 15 0 13 0;
#X connect 16 0 3 0;
#X connect 16 0 15 0;
#X connect 16 0 25 0;
#X connect 16 0 23 0;
#X connect 18 0 19 0;
#X connect 19 0 21 0;
#X connect 21 0 20 0;
#X connect 22 0 11 1;
#X connect 23 0 31 0;
#X connect 24 0 32 0;
#X connect 25 0 26 0;
#X connect 25 0 27 0;
#X connect 28 0 24 0;
#X connect 29 0 30 0;
#X connect 31 0 28 0;
#X connect 32 0 29 0;
#X connect 32 1 29 0;
