#N canvas 123 22 1440 852 12;
#X obj 134 39 inlet;
#X obj 237 40 inlet;
#N canvas 0 22 450 278 (subpatch) 0;
#X array ded_points 36 float 3;
#A 0 234 254 488 809 1078 1226 1404 1821 2497 2701 3525 3718 3957 4191
4476 4812 5152 5539 6632 6816 6948 7065 7339 7451 7731 7950 8133 8331
8535 8835 9109 9328 9649 9827 10005 10813;
#X coords 0 30000 36 0 200 140 1 0 0;
#X restore 856 64 graph;
#X obj 582 519 tabread ded_points;
#X obj 191 313 v dp_index;
#X obj 465 253 bng 15 250 50 0 empty empty empty 17 7 0 10 -257985
-1 -1;
#X obj 418 425 + 1;
#X text 384 202 SPEECH - syllables;
#X floatatom 414 357 5 0 0 0 - - -;
#X obj 602 614 v sylStart;
#X obj 423 615 v sylEnd;
#X obj 402 512 + 1;
#X obj 402 536 tabread ded_points;
#X obj 387 785 print;
#X obj 188 339 v sylStart;
#X obj 185 364 v sylEnd;
#X obj 397 742 pack 0 0;
#X obj 467 279 v dp_index;
#X obj 289 530 bng 15 250 50 0 empty empty empty 17 7 0 10 -262144
-1 -1;
#X obj 507 317 t b f f f;
#X floatatom 402 561 5 0 0 0 - - -;
#X floatatom 588 553 5 0 0 0 - - -;
#X obj 422 462 v dp_index;
#X obj 424 670 -;
#X obj 402 587 ms_to_samples;
#X obj 587 578 ms_to_samples;
#X obj 307 611 v sylStart;
#X obj 234 612 v sylEnd;
#X obj 289 550 t b b b;
#X obj 278 697 v sylStart;
#X obj 545 207 tgl 15 0 empty empty empty 17 7 0 10 -262144 -1 -1 0
1;
#X obj 419 388 moses 34;
#X msg 732 82 \; ded_points read ./dp.txt \; ded_points resize 36;
#X text 738 144 size = n = num elements the last element should be
null index;
#X text 501 377 n-2 if sylStart=i && sylEnd=i+1 so that n-1 (last index)
acts as terminator;
#X msg 488 437 1;
#X msg 179 268 1;
#X text 216 259 init index to 1 \, not 0;
#X obj 545 224 metro 250;
#X text 123 16 glob init;
#X text 239 10 audio in trigger;
#X obj 551 795 outlet;
#X text 550 820 to speech ctrl -> tabplay -> dac~;
#X text 478 52 unnecessary cord;
#X connect 0 0 36 0;
#X connect 0 0 32 0;
#X connect 1 0 5 0;
#X connect 3 0 21 0;
#X connect 5 0 17 0;
#X connect 6 0 22 0;
#X connect 8 0 31 0;
#X connect 11 0 12 0;
#X connect 12 0 20 0;
#X connect 16 0 13 0;
#X connect 16 0 41 0;
#X connect 17 0 19 0;
#X connect 18 0 28 0;
#X connect 19 0 18 0;
#X connect 19 1 8 0;
#X connect 19 2 11 0;
#X connect 19 3 3 0;
#X connect 20 0 24 0;
#X connect 21 0 25 0;
#X connect 23 0 16 1;
#X connect 24 0 10 0;
#X connect 25 0 9 0;
#X connect 26 0 23 1;
#X connect 27 0 23 0;
#X connect 28 0 29 0;
#X connect 28 1 27 0;
#X connect 28 2 26 0;
#X connect 29 0 16 0;
#X connect 30 0 38 0;
#X connect 31 0 6 0;
#X connect 31 1 35 0;
#X connect 35 0 22 0;
#X connect 36 0 4 0;
#X connect 36 0 14 0;
#X connect 36 0 15 0;
#X connect 38 0 5 0;
