#N canvas 677 33 518 759 12;
#N canvas 0 22 450 278 (subpatch) 0;
#X array pitches 5 float 1;
#A 0 60 64 65 67 70;
#X coords 0 80 4 50 200 140 1 0 0;
#X restore 283 150 graph;
#X msg 282 55 \; pitches 60 64 65 67 70;
#X msg 282 92 \; pitches resize 5;
#X obj 91 125 random 5;
#X floatatom 91 147 5 0 0 0 - - -;
#X obj 91 166 tabread pitches;
#X floatatom 91 188 5 0 0 0 - - -;
#X obj 91 207 mtof;
#X floatatom 91 229 5 0 0 0 - - -;
#X obj 90 305 sig~;
#X obj 91 334 osc~;
#X obj 89 262 *;
#X obj 179 238 + 1;
#X floatatom 179 260 5 0 0 0 - - -;
#X obj 179 216 random 2;
#X floatatom 89 284 5 0 0 0 - - -;
#X text 89 102;
#X obj 56 58 inlet;
#X obj 56 83 t b b;
#X obj 91 359 outlet~;
#X text 93 384 to dac~;
#X text 46 19 from yellow bang in input_detect;
#X connect 3 0 4 0;
#X connect 4 0 5 0;
#X connect 5 0 6 0;
#X connect 6 0 7 0;
#X connect 7 0 8 0;
#X connect 8 0 11 0;
#X connect 9 0 10 0;
#X connect 10 0 19 0;
#X connect 11 0 15 0;
#X connect 12 0 13 0;
#X connect 13 0 11 1;
#X connect 14 0 12 0;
#X connect 15 0 9 0;
#X connect 17 0 18 0;
#X connect 18 0 3 0;
#X connect 18 1 14 0;
